<svg width="512" height="512" viewBox="0 0 112 112" fill="none" xmlns="http://www.w3.org/2000/svg">
<path fill-rule="evenodd" clip-rule="evenodd" d="M90.6087 0C102.125 0 111.465 9.31695 111.465 20.8044C111.465 40.6874 111.465 70.5015 111.465 90.3845C111.465 101.872 102.125 111.189 90.6087 111.189C70.6764 111.189 40.7883 111.189 20.856 111.189C9.34007 111.189 0 101.872 0 90.3845C0 70.5015 0 40.6874 0 20.8044C0 9.31695 9.34007 0 20.856 0C40.7883 0 70.6764 0 90.6087 0Z" fill="#F45B8D"/>
<path fill-rule="evenodd" clip-rule="evenodd" d="M70.3353 15.0633C76.2537 13.8579 82.4055 15.3692 87.0881 19.1818C91.7706 22.9944 94.4849 28.7063 94.4849 34.7334C94.4849 47.8331 94.4849 63.8093 94.4849 76.4569C94.4849 82.0639 92.1368 87.4107 88.0035 91.2141C83.8748 95.0129 78.3364 96.9215 72.7338 96.4695C61.3364 95.5471 47.6091 94.4422 37.1501 93.5975C27.6843 92.835 20.0403 85.5752 18.8135 76.1784C17.596 66.8594 16.058 55.0929 14.7901 45.3903C13.4261 34.948 20.3789 25.2271 30.7236 23.1222C42.4093 20.7433 57.67 17.6385 70.3353 15.0633Z" fill="white"/>
<path d="M37.4375 62.2335C40.9282 62.2335 43.758 58.3522 43.758 53.5643C43.758 48.7764 40.9282 44.8951 37.4375 44.8951C33.9467 44.8951 31.1169 48.7764 31.1169 53.5643C31.1169 58.3522 33.9467 62.2335 37.4375 62.2335Z" fill="#F45B8D"/>
<path d="M69.3205 52.3384C72.8113 52.3384 75.6411 48.4571 75.6411 43.6692C75.6411 38.8813 72.8113 35 69.3205 35C65.8298 35 63 38.8813 63 43.6692C63 48.4571 65.8298 52.3384 69.3205 52.3384Z" fill="#F45B8D"/>
<path fill-rule="evenodd" clip-rule="evenodd" d="M75.2528 58.3103C75.393 58.4166 75.5444 58.5117 75.6734 58.6347C75.735 58.6906 76.049 58.9871 76.2677 59.4737C76.7106 60.4636 76.3911 61.3194 76.335 61.4704C76.2285 61.7668 76.2284 61.7724 76.0434 62.0353C75.2248 63.2266 72.7746 69.2671 66.7472 73.2605C65.7772 73.9037 63.0578 75.6655 59.503 76.9295C50.7955 80.0392 42.1889 74.4742 38.8472 71.5826C38.4098 71.2078 38.1519 70.9505 38.0902 70.889C37.9333 70.7324 37.9333 70.7324 37.8492 70.5311C37.7931 70.408 37.7651 70.2682 37.7651 70.1339C37.7595 70.0892 37.7539 69.8152 37.9165 69.5579C38.2024 69.0993 38.6846 69.088 38.7631 69.088C38.8976 69.0825 39.0379 69.1049 39.1668 69.1496C39.436 69.2391 39.4248 69.2614 39.6434 69.446C40.5069 70.1563 46.1922 74.586 53.1167 73.5681C55.2193 73.2549 56.7781 72.5501 58.0116 71.9349C61.1907 70.3409 63.568 68.3778 64.9698 67.1193C67.1677 65.1394 68.8161 63.0755 68.861 63.0196C70.5935 60.8999 71.5186 59.3059 71.5915 59.1716C71.7261 58.9255 71.7373 58.9367 71.9279 58.7354C72.04 58.6179 72.6681 57.9523 73.7558 57.9132C74.2829 57.8908 74.6922 58.0474 74.7707 58.0754L75.2528 58.3103Z" fill="#F45B8D"/>
</svg>
